<?xml version="1.0" encoding="UTF-8" standalone="no"?>
<!-- Created with Inkscape (http://www.inkscape.org/) -->

<svg
   xmlns:dc="http://purl.org/dc/elements/1.1/"
   xmlns:cc="http://creativecommons.org/ns#"
   xmlns:rdf="http://www.w3.org/1999/02/22-rdf-syntax-ns#"
   xmlns:svg="http://www.w3.org/2000/svg"
   xmlns="http://www.w3.org/2000/svg"
   xmlns:sodipodi="http://sodipodi.sourceforge.net/DTD/sodipodi-0.dtd"
   xmlns:inkscape="http://www.inkscape.org/namespaces/inkscape"
   width="744.09448"
   height="744.09448"
   id="svg2"
   version="1.1"
   inkscape:version="0.48.5 r10040"
   sodipodi:docname="UFO.svg">
  <defs
     id="defs4" />
  <sodipodi:namedview
     id="base"
     pagecolor="#ffffff"
     bordercolor="#666666"
     borderopacity="1.0"
     inkscape:pageopacity="0.0"
     inkscape:pageshadow="2"
     inkscape:zoom="0.60882809"
     inkscape:cx="658.71559"
     inkscape:cy="392.79735"
     inkscape:document-units="px"
     inkscape:current-layer="layer1"
     showgrid="false"
     showguides="true"
     inkscape:guide-bbox="true"
     inkscape:window-width="1366"
     inkscape:window-height="705"
     inkscape:window-x="-8"
     inkscape:window-y="-8"
     inkscape:window-maximized="1"
     inkscape:snap-bbox="true"
     inkscape:bbox-nodes="true"
     units="mm" />
  <metadata
     id="metadata7">
    <rdf:RDF>
      <cc:Work
         rdf:about="">
        <dc:format>image/svg+xml</dc:format>
        <dc:type
           rdf:resource="http://purl.org/dc/dcmitype/StillImage" />
        <dc:title></dc:title>
      </cc:Work>
    </rdf:RDF>
  </metadata>
  <g
     inkscape:label="Layer 1"
     inkscape:groupmode="layer"
     id="layer1"
     transform="translate(0,-308.26772)">
    <g
       style="font-size:48.13342285px;font-style:normal;font-variant:normal;font-weight:bold;font-stretch:normal;line-height:125%;letter-spacing:0px;word-spacing:0px;fill:#0000ff;fill-opacity:1;fill-rule:evenodd;stroke:none;font-family:Arial;-inkscape-font-specification:Arial Bold"
       id="text2983"
       transform="matrix(1.1955764,0,0,1.1955764,-70.407625,393.14817)">
      <path
         id="path3012"
         style="fill:#0000ff;fill-rule:evenodd;font-family:supersonic;-inkscape-font-specification:supersonic Bold"
         d="m 634.8831,376.26746 c -5e-5,3.17678 -0.94652,5.76011 -2.83942,7.75 -1.98993,2.14951 -4.70154,3.22427 -8.13485,3.22427 -3e-5,2.4384 -1.09903,4.51618 -3.29698,6.23334 -2.19802,1.71716 -4.67681,2.57574 -7.43639,2.57575 l -10.68636,0 0,-6.93182 10.68636,0 c 1.21918,0 2.29393,-0.62576 3.22427,-1.87727 l -13.86215,0 c -3.0485,0 -5.63967,-1.06692 -7.7735,-3.20077 -2.13385,-2.13384 -3.20077,-4.725 -3.20077,-7.7735 l 0,-6.40153 c 0,-3.01615 1.06692,-5.59924 3.20077,-7.74927 2.13383,-2.14997 4.725,-3.22497 7.7735,-3.225 l 21.37125,0 c 3.04845,3e-5 5.63962,1.07503 7.7735,3.225 2.1338,2.15003 3.20072,4.73312 3.20077,7.74927 z m -6.97882,0 0,-6.40153 c -4e-5,-1.12321 -0.38514,-2.06993 -1.1553,-2.84015 -0.77024,-0.77018 -1.71695,-1.15528 -2.84015,-1.1553 l -21.37125,0 c -1.12324,2e-5 -2.07779,0.38512 -2.86365,1.1553 -0.78588,0.77022 -1.17882,1.71694 -1.17881,2.84015 l 0,6.40153 c -1e-5,1.12324 0.39293,2.07779 1.17881,2.86365 0.78586,0.78588 1.74041,1.17881 2.86365,1.17881 l 21.37125,0 c 1.1232,0 2.06991,-0.39293 2.84015,-1.17881 0.77016,-0.78586 1.15526,-1.74041 1.1553,-2.86365 z m -41.15461,10.97427 -6.93034,0 0,-17.3758 c -4e-5,-1.12321 -0.39322,-2.06993 -1.17954,-2.84015 -0.78639,-0.77018 -1.74119,-1.15528 -2.86438,-1.1553 l -21.37126,0 c -1.12324,2e-5 -2.07779,0.38512 -2.86365,1.1553 -0.78587,0.77022 -1.17881,1.71694 -1.1788,2.84015 l 0,17.3758 -6.93181,0 0,-17.3758 c 0,-3.01615 1.06692,-5.59924 3.20076,-7.74927 2.13384,-2.14997 4.72501,-3.22497 7.7735,-3.225 l 21.37126,0 c 3.04845,3e-5 5.63961,1.07503 7.7735,3.225 2.1338,2.15003 3.20072,4.73312 3.20076,7.74927 z m -48.13928,-27.82126 -6.93182,0 0,-6.93034 6.93182,0 z m 0,27.82126 -6.93182,0 0,-23.5379 6.93182,0 z m -11.78954,0 -6.93181,0 0,-17.3758 c -4e-5,-1.12321 -0.39297,-2.06993 -1.17881,-2.84015 -0.7859,-0.77018 -1.72429,-1.15528 -2.81517,-1.1553 l -4.28483,0 c -1.12326,2e-5 -2.07781,0.38512 -2.86365,1.1553 -0.7859,0.77022 -1.17883,1.71694 -1.1788,2.84015 l 0,17.3758 -6.93182,0 0,-17.3758 c -2e-5,-1.12321 -0.39295,-2.06993 -1.1788,-2.84015 -0.78589,-0.77018 -1.72477,-1.15528 -2.81665,-1.1553 l -4.28335,0 c -1.12324,2e-5 -2.07779,0.38512 -2.86365,1.1553 -0.78588,0.77022 -1.17882,1.71694 -1.17881,2.84015 l 0,17.3758 -6.93181,0 0,-17.3758 c 0,-3.01615 1.06692,-5.59924 3.20077,-7.74927 2.13383,-2.14997 4.725,-3.22497 7.7735,-3.225 l 4.28335,0 c 2.88885,3e-5 5.37572,0.97833 7.46063,2.93489 2.11815,-1.95656 4.62118,-2.93486 7.50909,-2.93489 l 4.28483,0 c 3.01613,3e-5 5.59114,1.07503 7.72502,3.225 2.13381,2.15003 3.20073,4.73312 3.20077,7.74927 z m -50.2516,-17.3758 0,6.40153 c -4e-5,3.0485 -1.06696,5.63966 -3.20076,7.7735 -2.13389,2.13385 -4.72505,3.20077 -7.7735,3.20077 l -21.37126,0 c -3.04849,0 -5.63966,-1.06692 -7.7735,-3.20077 -2.13384,-2.13384 -3.20076,-4.725 -3.20076,-7.7735 l 0,-6.40153 c 0,-3.01615 1.06692,-5.59924 3.20076,-7.74927 2.13384,-2.14997 4.72501,-3.22497 7.7735,-3.225 l 21.37126,0 c 3.04845,3e-5 5.63961,1.07503 7.7735,3.225 2.1338,2.15003 3.20072,4.73312 3.20076,7.74927 z m -6.97881,0 c -4e-5,-1.12321 -0.38514,-2.06993 -1.15531,-2.84015 -0.77023,-0.77018 -1.71695,-1.15528 -2.84014,-1.1553 l -21.37126,0 c -1.12324,2e-5 -2.06995,0.38512 -2.84014,1.1553 -0.77021,0.77022 -1.15531,1.71694 -1.15531,2.84015 l -0.047,6.40153 c -1e-5,1.12324 0.39293,2.07779 1.1788,2.86365 0.78586,0.78588 1.74041,1.17881 2.86365,1.17881 l 21.37126,0 c 1.12319,0 2.06991,-0.39293 2.84014,-1.17881 0.77017,-0.78586 1.15527,-1.74041 1.15531,-2.86365 z m -41.11347,17.3758 -28.06217,0 c -3.04849,0 -5.63966,-1.06692 -7.7735,-3.20077 -2.13384,-2.13384 -3.20076,-4.725 -3.20076,-7.7735 l 0,-6.40153 c 0,-3.01615 1.06692,-5.59924 3.20076,-7.74927 2.13384,-2.14997 4.72501,-3.22497 7.7735,-3.225 l 28.06217,0 0,6.97882 -28.06217,0 c -1.12324,2e-5 -2.06995,0.38512 -2.84014,1.1553 -0.77021,0.77022 -1.15531,1.71694 -1.15531,2.84015 l -0.047,6.40153 c -10e-6,1.12324 0.39293,2.07779 1.1788,2.86365 0.78586,0.78588 1.74041,1.17881 2.86365,1.17881 l 28.06217,0 z m -67.91678,0 -32.34552,0 c -3.0485,0 -5.63966,-1.06692 -7.7735,-3.20077 -2.13385,-2.13384 -3.20077,-4.725 -3.20077,-7.7735 l 0,-6.40153 c 0,-3.01615 1.06692,-5.59924 3.20077,-7.74927 2.13384,-2.14997 4.725,-3.22497 7.7735,-3.225 l 23.5379,0 c 2.43836,3e-5 4.5159,0.86644 6.23261,2.59925 1.71663,1.73285 2.57497,3.80231 2.57501,6.20837 -4e-5,2.43939 -0.85838,4.5255 -2.57501,6.25831 -1.71671,1.73284 -3.79425,2.59926 -6.23261,2.59925 l -23.5379,0 0,-6.98029 23.5379,0 c 0.51311,2e-5 0.95427,-0.17649 1.32349,-0.52954 0.36916,-0.35301 0.55375,-0.80226 0.55379,-1.34773 -4e-5,-0.51312 -0.18463,-0.94621 -0.55379,-1.29926 -0.36922,-0.35301 -0.81038,-0.52952 -1.32349,-0.52954 l -23.5379,0 c -1.09092,2e-5 -2.02956,0.36113 -2.81591,1.08332 -0.78637,0.72224 -1.17955,1.59649 -1.17954,2.62275 l -0.047,6.69091 c 0,1.12324 0.39293,2.07779 1.17881,2.86365 0.78586,0.78588 1.74041,1.17881 2.86365,1.17881 l 32.34552,0 z m -48.14958,-21.37125 -25.6546,0 c -1.12324,2e-5 -2.07779,0.38512 -2.86365,1.1553 -0.78588,0.77022 -1.17882,1.71694 -1.17881,2.84015 l 0,17.32733 -6.93181,0.0485 0,-17.3758 c 0,-3.01615 1.06692,-5.59924 3.20077,-7.74927 2.13383,-2.14997 4.725,-3.22497 7.7735,-3.225 l 25.6546,0 z m -41.44251,21.37125 -6.93034,0 -0.0485,-17.3758 c -3e-5,-1.12321 -0.38513,-2.06993 -1.1553,-2.84015 -0.77023,-0.77018 -1.71695,-1.15528 -2.84015,-1.1553 l -21.37125,0 c -1.12324,2e-5 -2.06995,0.38512 -2.84015,1.1553 -0.7702,0.77022 -1.1553,1.71694 -1.1553,2.84015 l -0.047,6.40153 c -1e-5,1.12324 0.39293,2.07779 1.1788,2.86365 0.78586,0.78588 1.74041,1.17881 2.86365,1.17881 l 21.37125,0 0,6.93181 -21.37125,0 c -3.04849,0 -5.63966,-1.06692 -7.7735,-3.20077 -2.13384,-2.13384 -3.20076,-4.725 -3.20076,-7.7735 l 0,-6.40153 c 0,-3.01615 1.06692,-5.59924 3.20076,-7.74927 2.13384,-2.14997 4.72501,-3.22497 7.7735,-3.225 l 21.37125,0 c 3.04846,3e-5 5.63962,1.07503 7.77351,3.225 2.1338,2.15003 3.20072,4.73312 3.20076,7.74927 z m -72.20014,0 -32.34552,0 c -3.04849,0 -5.63966,-1.06692 -7.7735,-3.20077 -2.13384,-2.13384 -3.20076,-4.725 -3.20076,-7.7735 l 0,-6.40153 c 0,-3.01615 1.06692,-5.59924 3.20076,-7.74927 2.13384,-2.14997 4.72501,-3.22497 7.7735,-3.225 l 23.53791,0 c 2.43836,3e-5 4.51589,0.86644 6.23261,2.59925 1.71663,1.73285 2.57496,3.80231 2.575,6.20837 -4e-5,2.43939 -0.85837,4.5255 -2.575,6.25831 -1.71672,1.73284 -3.79425,2.59926 -6.23261,2.59925 l -23.53791,0 0,-6.98029 23.53791,0 c 0.5131,2e-5 0.95427,-0.17649 1.32349,-0.52954 0.36915,-0.35301 0.55374,-0.80226 0.55378,-1.34773 -4e-5,-0.51312 -0.18463,-0.94621 -0.55378,-1.29926 -0.36922,-0.35301 -0.81039,-0.52952 -1.32349,-0.52954 l -23.53791,0 c -1.09092,2e-5 -2.02956,0.36113 -2.81591,1.08332 -0.78636,0.72224 -1.17954,1.59649 -1.17954,2.62275 l -0.047,6.69091 c -1e-5,1.12324 0.39293,2.07779 1.1788,2.86365 0.78587,0.78588 1.74041,1.17881 2.86365,1.17881 l 32.34552,0 z m -48.17749,-10.97427 c -4e-5,3.0485 -1.06696,5.63966 -3.20076,7.7735 -2.13389,2.13385 -4.70889,3.20077 -7.72503,3.20077 l -4.28483,0 c -2.88791,0 -5.39094,-0.97879 -7.50909,-2.93636 -2.0849,1.95757 -4.57177,2.93636 -7.46062,2.93636 l -4.28336,0 c -3.0485,0 -5.63966,-1.06692 -7.7735,-3.20077 -2.13385,-2.13384 -3.20077,-4.725 -3.20077,-7.7735 l 0,-23.77733 6.93181,0 0,23.77733 c 0,1.12324 0.39293,2.07779 1.17881,2.86365 0.78586,0.78588 1.74041,1.17881 2.86365,1.17881 l 4.28336,0 c 1.09187,0 2.03076,-0.39293 2.81664,-1.17881 0.78585,-0.78586 1.17879,-1.74041 1.17881,-2.86365 l 0,-23.77733 6.93181,0 0,23.77733 c -3e-5,1.12324 0.39291,2.07779 1.1788,2.86365 0.78585,0.78588 1.74039,1.17881 2.86365,1.17881 l 4.28483,0 c 1.09088,0 2.02927,-0.39293 2.81518,-1.17881 0.78583,-0.78586 1.17876,-1.74041 1.1788,-2.86365 l 0,-23.77733 6.93181,0 z M 105.81718,155.64605 C 224.18249,272.16729 446.61075,310.58081 637.48448,292.5109 595.42675,265.59134 549.94283,236.95866 499.86762,206.03036 398.60647,208.84266 339.68425,193.6871 262.98615,152.63803 212.63373,149.56622 160.18008,150.6969 105.81718,155.64605 z m 114.27294,45.60538 c 0,3.53783 -3.07283,6.40581 -6.86337,6.40581 -3.79053,0 -6.86336,-2.86798 -6.86336,-6.40581 0,-3.53783 3.07283,-6.40581 6.86336,-6.40581 3.79054,0 6.86337,2.86798 6.86337,6.40581 z m 35.68951,17.38719 c 0,3.53783 -3.07284,6.40582 -6.86337,6.40582 -3.79053,0 -6.86337,-2.86799 -6.86337,-6.40582 0,-3.53783 3.07284,-6.4058 6.86337,-6.4058 3.79053,0 6.86337,2.86797 6.86337,6.4058 z m 280.02534,58.5674 c 0,3.53783 -3.07283,6.40581 -6.86336,6.40581 -3.79053,0 -6.86337,-2.86798 -6.86337,-6.40581 0,-3.53784 3.07284,-6.40581 6.86337,-6.40581 3.79053,0 6.86336,2.86797 6.86336,6.40581 z m -41.18019,-0.91512 c 0,3.53783 -3.07284,6.40581 -6.86337,6.40581 -3.79053,0 -6.86337,-2.86798 -6.86337,-6.40581 0,-3.53783 3.07284,-6.4058 6.86337,-6.4058 3.79053,0 6.86337,2.86797 6.86337,6.4058 z m -38.43485,-3.66046 c 0,3.53783 -3.07283,6.40581 -6.86337,6.40581 -3.79053,0 -6.86336,-2.86798 -6.86336,-6.40581 0,-3.53783 3.07283,-6.40581 6.86336,-6.40581 3.79054,0 6.86337,2.86798 6.86337,6.40581 z m -40.26508,-7.32093 c 0,3.53784 -3.07284,6.40582 -6.86337,6.40582 -3.79053,0 -6.86337,-2.86798 -6.86337,-6.40582 0,-3.53783 3.07284,-6.4058 6.86337,-6.4058 3.79053,0 6.86337,2.86797 6.86337,6.4058 z m -44.84067,-10.98138 c 0,3.53783 -3.07283,6.40581 -6.86336,6.40581 -3.79053,0 -6.86337,-2.86798 -6.86337,-6.40581 0,-3.53783 3.07284,-6.40581 6.86337,-6.40581 3.79053,0 6.86336,2.86798 6.86336,6.40581 z m -44.84066,-10.98139 c 0,3.53783 -3.07283,6.40582 -6.86336,6.40582 -3.79053,0 -6.86337,-2.86799 -6.86337,-6.40582 0,-3.53783 3.07284,-6.40581 6.86337,-6.40581 3.79053,0 6.86336,2.86798 6.86336,6.40581 z m -34.77439,-10.98139 c 0,3.53784 -3.07283,6.40582 -6.86336,6.40582 -3.79054,0 -6.86337,-2.86798 -6.86337,-6.40582 0,-3.53783 3.07283,-6.4058 6.86337,-6.4058 3.79053,0 6.86336,2.86797 6.86336,6.4058 z m 134.72553,-81.54599 c 10.76244,11.3971 26.12368,20.41407 40.44278,26.53046 -8.07283,-16.60307 -21.46957,-22.25451 -40.44278,-26.53046 z M 647.32724,84.331521 c -0.19393,0.009 -0.29981,0.0276 -0.37903,0.0474 -0.34124,0.0853 -0.43015,0.14087 -0.78176,0.26058 -0.3516,0.11972 -0.81467,0.26988 -1.39768,0.4738 -1.16603,0.40782 -2.77764,0.98732 -4.66684,1.65826 -3.77841,1.3419 -8.69917,3.1023 -13.5978,4.85636 -8.98745,3.21814 -16.43291,5.91462 -17.83823,6.41987 l -2.0373,-4.69053 a 1.8467128,1.8467128 0 0 0 -2.7243,-0.78176 L 570.40728,115.6965 a 1.8467128,1.8467128 0 0 0 1.65827,3.24547 l 24.42392,-8.64668 2.62954,6.77521 a 1.8467128,1.8467128 0 0 0 2.7243,0.9002 c 0,0 11.91261,-7.63924 23.68955,-15.23238 5.88847,-3.796569 11.74159,-7.574099 16.06151,-10.399709 2.15996,-1.41281 3.92742,-2.59339 5.14063,-3.4113 0.60661,-0.40895 1.07444,-0.71453 1.39769,-0.94758 0.16162,-0.11653 0.27561,-0.20282 0.42641,-0.33165 0.0754,-0.0644 0.10536,0.0302 0.42641,-0.49748 0.0803,-0.13194 0.26043,-0.80373 0.26058,-0.80545 1.6e-4,-0.002 -0.85152,-1.72853 -0.85282,-1.72933 -0.002,-7.6e-4 -0.8721,-0.29322 -1.06603,-0.28428 z M 291.43375,144.97028 c 55.27309,37.07298 126.61694,51.46873 191.67867,42.75908 C 442.71,127.47834 358.06025,111.48121 291.43375,144.97028 z m -84.53521,16.21896 c 4.14873,4.91484 9.62249,9.82968 17.69342,14.74452 48.40053,-6.81092 23.3481,-21.36834 -17.69342,-14.74452 z m 40.30167,22.11677 c 19.36135,12.04889 41.59579,22.18238 68.80773,28.99754 20.43078,-23.5018 -19.59217,-37.90294 -68.80773,-28.99754 z m 84.04373,35.38684 c 26.03863,12.37716 52.76266,18.58574 80.11186,19.16786 -2.30565,-38.08956 -60.12449,-42.53517 -80.11186,-19.16786 z m 95.83934,19.65934 c 21.29763,10.14544 52.42493,10.60338 78.6374,9.3382 -18.23718,-27.61717 -70.09319,-41.63368 -78.6374,-9.3382 z m 98.78823,8.84671 c 9.1473,1.36619 17.69846,1.3308 26.54013,-1.47444 -10.62606,-14.59769 -65.84369,-25.95754 -26.54013,1.47444 z M 359.19127,110.81644 c -39.39029,0.39847 -76.60058,11.51014 -100.68058,27.76415 -68.74807,-1.90628 -126.53328,0.2633 -184.802171,8.8362 13.042488,19.77034 31.014091,37.74664 52.614491,53.96479 -3.15324,27.02663 27.76234,41.45516 55.78888,34.37353 22.15128,11.34323 46.14474,21.47307 71.21078,30.39369 43.01341,45.22477 137.47755,69.11087 193.85158,44.37053 28.09908,3.38949 55.16844,5.39742 80.26019,6.04083 16.78803,24.82864 54.82081,19.41023 68.65231,-2.15575 33.51252,-3.46593 58.55828,-10.65164 70.35796,-21.48642 -48.10124,-31.60275 -100.68186,-66.0606 -159.24115,-100.27785 -2.29446,-11.82928 -4.90446,-20.62292 -8.50454,-27.50357 l 32.00458,-23.26314 c 3.52163,1.98076 8.99853,2.15993 14.42693,0.11845 7.91597,-2.97698 12.76353,-9.55955 10.82612,-14.71121 -1.33196,-3.54176 -5.52719,-5.47823 -10.58922,-5.37753 -2.30093,0.0458 -4.77526,0.51476 -7.24901,1.44507 -6.78847,2.55296 -11.32134,7.75571 -11.25253,12.43701 l -39.65631,15.49296 c -6.4551,-5.00001 -14.86778,-8.70702 -26.22433,-12.69759 -30.59902,-20.12413 -67.03785,-28.11575 -101.79398,-27.76415 z"
         inkscape:connector-curvature="0" />
    </g>
  </g>
</svg>
